# xmcd CD database file
#
# Track frame offsets:
#	150
#	15621
#	35403
#	61234
#	78548
#	100765
#	116748
#	155364
#	175411
#	197303
#	216682
#	240935
#
# Disc length: 3377 seconds
#
# Revision: 0
# Processed by: cddbd v1.5.1PL0 Copyright (c) Steve Scherf et al.
# Submitted via: CDex 1.51
#
DISCID=980d2f0c
DTITLE=Soul - Jazz - Le sonorità dell'anima
DYEAR=2005
DGENRE=Jazz
TTITLE0=Jimmy Smith - The cat
TTITLE1=Roland Kirk - Skater's waltz
TTITLE2=Ramsey Lewis - The "In" Crowd
TTITLE3=James Taylor Quartet - Wait a minute
TTITLE4=Larry Young - Grove street
TTITLE5=Robby Timmons - This here
TTITLE6=Horace Silver - Song for my father
TTITLE7=Brother Jack McDuff - Whap!
TTITLE8=Joey De Francesco - Big Bad Jim
TTITLE9=George Benson - The cooker
TTITLE10=Cannonball Adderley - Jive Samba
TTITLE11=Quincy Jones - Soul Bossa Nova
EXTD=YEAR: 2005
EXTT0=
EXTT1=
EXTT2=
EXTT3=
EXTT4=
EXTT5=
EXTT6=
EXTT7=
EXTT8=
EXTT9=
EXTT10=
EXTT11=
PLAYORDER=
